<svg width="24" height="24" viewBox="0 0 24 24" fill="none" xmlns="http://www.w3.org/2000/svg">
<g clip-path="url(#clip0_1216_6603)">
<path d="M12.0001 20.9999L20.3776 12.5024C21.2568 11.6232 21.7507 10.4308 21.7507 9.18739C21.7507 7.94402 21.2568 6.75158 20.3776 5.87239C19.4984 4.99319 18.306 4.49927 17.0626 4.49927C15.8193 4.49927 14.6268 4.99319 13.7476 5.87239L12.0001 7.49989L10.2526 5.87239C9.37344 4.99319 8.181 4.49927 6.93763 4.49927C5.69426 4.49927 4.50182 4.99319 3.62263 5.87239C2.74344 6.75158 2.24951 7.94402 2.24951 9.18739C2.24951 10.4308 2.74344 11.6232 3.62263 12.5024L12.0001 20.9999Z" fill="#02B550"/>
</g>
<defs>
<clipPath id="clip0_1216_6603">
<rect width="24" height="24" fill="white"/>
</clipPath>
</defs>
</svg>
