<svg width="36" height="36" viewBox="0 0 36 36" fill="none" xmlns="http://www.w3.org/2000/svg">
<g clip-path="url(#clip0_269_372)">
<g filter="url(#filter0_d_269_372)">
<path d="M18 31.5L30.5662 18.7537C31.885 17.4349 32.6259 15.6463 32.6259 13.7812C32.6259 11.9162 31.885 10.1275 30.5662 8.8087C29.2474 7.48991 27.4587 6.74902 25.5937 6.74902C23.7287 6.74902 21.94 7.48991 20.6212 8.8087L18 11.25L15.3787 8.8087C14.0599 7.48991 12.2712 6.74902 10.4062 6.74902C8.54115 6.74902 6.75249 7.48991 5.4337 8.8087C4.11491 10.1275 3.37402 11.9162 3.37402 13.7812C3.37402 15.6463 4.11491 17.4349 5.4337 18.7537L18 31.5Z" fill="white"/>
<path d="M18 31.5L30.5662 18.7537C31.885 17.4349 32.6259 15.6463 32.6259 13.7812C32.6259 11.9162 31.885 10.1275 30.5662 8.8087C29.2474 7.48991 27.4587 6.74902 25.5937 6.74902C23.7287 6.74902 21.94 7.48991 20.6212 8.8087L18 11.25L15.3787 8.8087C14.0599 7.48991 12.2712 6.74902 10.4062 6.74902C8.54115 6.74902 6.75249 7.48991 5.4337 8.8087C4.11491 10.1275 3.37402 11.9162 3.37402 13.7812C3.37402 15.6463 4.11491 17.4349 5.4337 18.7537L18 31.5Z" stroke="#02B550" stroke-width="2" stroke-linecap="round" stroke-linejoin="round"/>
</g>
</g>
<defs>
<filter id="filter0_d_269_372" x="-1.62598" y="1.74902" width="39.252" height="34.751" filterUnits="userSpaceOnUse" color-interpolation-filters="sRGB">
<feFlood flood-opacity="0" result="BackgroundImageFix"/>
<feColorMatrix in="SourceAlpha" type="matrix" values="0 0 0 0 0 0 0 0 0 0 0 0 0 0 0 0 0 0 127 0" result="hardAlpha"/>
<feOffset/>
<feGaussianBlur stdDeviation="2"/>
<feComposite in2="hardAlpha" operator="out"/>
<feColorMatrix type="matrix" values="0 0 0 0 0 0 0 0 0 0 0 0 0 0 0 0 0 0 0.15 0"/>
<feBlend mode="normal" in2="BackgroundImageFix" result="effect1_dropShadow_269_372"/>
<feBlend mode="normal" in="SourceGraphic" in2="effect1_dropShadow_269_372" result="shape"/>
</filter>
<clipPath id="clip0_269_372">
<rect width="36" height="36" fill="white"/>
</clipPath>
</defs>
</svg>
