<svg width="21" height="21" viewBox="0 0 21 21" fill="none" xmlns="http://www.w3.org/2000/svg">
<g clip-path="url(#clip0_1216_6505)">
<path d="M17.4738 10.5887L10.4996 17.6629L3.52531 10.5887L3.52532 10.5887L3.5228 10.5862C2.84728 9.91066 2.46777 8.99445 2.46777 8.03912C2.46777 7.08378 2.84728 6.16757 3.5228 5.49204C4.19833 4.81652 5.11454 4.43701 6.06988 4.43701C7.02521 4.43701 7.94142 4.81652 8.61695 5.49204C8.62114 5.49623 8.6254 5.50035 8.62973 5.50438L10.1588 6.92845C10.3508 7.10726 10.6483 7.10726 10.8403 6.92845L12.3694 5.50438C12.3737 5.50035 12.378 5.49623 12.3822 5.49204C13.0577 4.81652 13.9739 4.43701 14.9293 4.43701C15.8846 4.43701 16.8008 4.81652 17.4763 5.49204C18.1518 6.16757 18.5314 7.08378 18.5314 8.03912C18.5314 8.99445 18.1518 9.91066 17.4763 10.5862L17.4738 10.5887Z" stroke="#A5ACA8" stroke-linecap="round" stroke-linejoin="round"/>
</g>
<defs>
<clipPath id="clip0_1216_6505">
<rect width="21" height="21" fill="white"/>
</clipPath>
</defs>
</svg>
