<svg width="18" height="17" viewBox="0 0 18 17" fill="none" xmlns="http://www.w3.org/2000/svg">
<path d="M9 0.375C7.39303 0.375 5.82214 0.851523 4.486 1.74431C3.14985 2.6371 2.10844 3.90605 1.49348 5.3907C0.87852 6.87535 0.717618 8.50901 1.03112 10.0851C1.34463 11.6612 2.11846 13.1089 3.25476 14.2452C4.39106 15.3815 5.8388 16.1554 7.4149 16.4689C8.99099 16.7824 10.6247 16.6215 12.1093 16.0065C13.594 15.3916 14.8629 14.3502 15.7557 13.014C16.6485 11.6779 17.125 10.107 17.125 8.5C17.1227 6.34581 16.266 4.28051 14.7427 2.75727C13.2195 1.23403 11.1542 0.377275 9 0.375ZM11.9422 10.5578C12.0003 10.6159 12.0463 10.6848 12.0777 10.7607C12.1092 10.8366 12.1254 10.9179 12.1254 11C12.1254 11.0821 12.1092 11.1634 12.0777 11.2393C12.0463 11.3152 12.0003 11.3841 11.9422 11.4422C11.8841 11.5003 11.8152 11.5463 11.7393 11.5777C11.6634 11.6092 11.5821 11.6253 11.5 11.6253C11.4179 11.6253 11.3366 11.6092 11.2607 11.5777C11.1848 11.5463 11.1159 11.5003 11.0578 11.4422L9 9.38359L6.94219 11.4422C6.88412 11.5003 6.81518 11.5463 6.73931 11.5777C6.66344 11.6092 6.58213 11.6253 6.5 11.6253C6.41788 11.6253 6.33656 11.6092 6.26069 11.5777C6.18482 11.5463 6.11588 11.5003 6.05782 11.4422C5.99975 11.3841 5.95368 11.3152 5.92226 11.2393C5.89083 11.1634 5.87466 11.0821 5.87466 11C5.87466 10.9179 5.89083 10.8366 5.92226 10.7607C5.95368 10.6848 5.99975 10.6159 6.05782 10.5578L8.11641 8.5L6.05782 6.44219C5.94054 6.32491 5.87466 6.16585 5.87466 6C5.87466 5.83415 5.94054 5.67509 6.05782 5.55781C6.17509 5.44054 6.33415 5.37465 6.5 5.37465C6.66586 5.37465 6.82492 5.44054 6.94219 5.55781L9 7.61641L11.0578 5.55781C11.1159 5.49974 11.1848 5.45368 11.2607 5.42225C11.3366 5.39083 11.4179 5.37465 11.5 5.37465C11.5821 5.37465 11.6634 5.39083 11.7393 5.42225C11.8152 5.45368 11.8841 5.49974 11.9422 5.55781C12.0003 5.61588 12.0463 5.68482 12.0777 5.76069C12.1092 5.83656 12.1254 5.91788 12.1254 6C12.1254 6.08212 12.1092 6.16344 12.0777 6.23931C12.0463 6.31518 12.0003 6.38412 11.9422 6.44219L9.8836 8.5L11.9422 10.5578Z" fill="#C5C9C7"/>
</svg>
